<svg width="60" height="60" viewBox="0 0 60 60" fill="none" xmlns="http://www.w3.org/2000/svg">
<rect width="60" height="60" rx="12" fill="#007643"/>
<path d="M32.5 18.75V23.75C32.5 24.0815 32.6317 24.3995 32.8661 24.6339C33.1005 24.8683 33.4185 25 33.75 25H38.75M32.5 18.75H23.75C23.087 18.75 22.4511 19.0134 21.9822 19.4822C21.5134 19.9511 21.25 20.587 21.25 21.25V38.75C21.25 39.413 21.5134 40.0489 21.9822 40.5178C22.4511 40.9866 23.087 41.25 23.75 41.25H36.25C36.913 41.25 37.5489 40.9866 38.0178 40.5178C38.4866 40.0489 38.75 39.413 38.75 38.75V25M32.5 18.75L38.75 25M26.25 36.25H33.75M26.25 31.25H33.75" stroke="white" stroke-width="2" stroke-linecap="round" stroke-linejoin="round"/>
</svg>
