<svg width="60" height="60" viewBox="0 0 60 60" fill="none" xmlns="http://www.w3.org/2000/svg">
<rect width="60" height="60" rx="12" fill="#007643"/>
<g clip-path="url(#clip0_16_56)">
<path fill-rule="evenodd" clip-rule="evenodd" d="M30.0001 15.7896C30.4361 15.7896 30.7895 16.143 30.7895 16.579V16.6328C32.9986 16.8634 34.6844 17.8127 35.7817 19.022C36.5357 19.8531 37.0359 20.8441 37.1927 21.8097L37.2782 21.8759C38.1657 22.5633 38.8167 23.3968 38.6624 24.3528C38.5134 25.2764 37.6788 25.8387 36.902 26.1825C36.7149 26.2653 36.5142 26.343 36.3016 26.4156C36.311 26.5566 36.3159 26.6989 36.3159 26.8422C36.3159 30.3303 33.4882 33.158 30.0001 33.158C26.5119 33.158 23.6843 30.3303 23.6843 26.8422C23.6843 26.6989 23.6891 26.5566 23.6985 26.4156C23.486 26.343 23.2853 26.2653 23.0982 26.1825C22.3213 25.8387 21.4868 25.2764 21.3377 24.3528C21.1835 23.3968 21.8345 22.5633 22.7219 21.8759L22.8218 21.7986C22.842 21.6737 22.8675 21.5487 22.8977 21.4243C23.0803 20.6732 23.4512 19.8868 24.0122 19.1719C25.0703 17.8235 26.8014 16.7339 29.2106 16.5942V16.579C29.2106 16.143 29.564 15.7896 30.0001 15.7896ZM36.0474 24.032C36.387 24.1548 36.7558 24.0302 36.9567 23.7508C37.1124 23.968 37.1065 24.0833 37.1036 24.1013C37.0934 24.1645 36.9725 24.4247 36.2629 24.7387C35.435 25.1051 34.1893 25.3712 32.7598 25.5202C30.0001 25.658 30.0001 25.8078 27.2403 25.5202C25.8109 25.3712 24.5651 25.1051 23.7373 24.7387C23.0278 24.4247 22.9067 24.1645 22.8965 24.1013C22.8936 24.0833 22.8877 23.9681 23.0433 23.7509C23.2456 24.0322 23.6178 24.1561 23.9585 24.0298C24.3673 23.8784 24.576 23.4242 24.4245 23.0153C24.3298 22.7597 24.301 22.3357 24.4319 21.7974C24.56 21.271 24.829 20.6888 25.2544 20.1467L25.2632 20.1354V21.7106C25.2632 22.1466 25.6167 22.5001 26.0527 22.5001C26.4887 22.5001 26.8422 22.1466 26.8422 21.7106V18.8259C27.4908 18.4825 28.2763 18.2425 29.2106 18.1764V20.1317C29.2106 20.5677 29.564 20.9211 30.0001 20.9211C30.4361 20.9211 30.7895 20.5677 30.7895 20.1317V18.2219C31.7127 18.3376 32.5014 18.6028 33.158 18.9565V21.7106C33.158 22.1466 33.5114 22.5001 33.9474 22.5001C34.3835 22.5001 34.7369 22.1466 34.7369 21.7106V20.2256C35.6176 21.2732 35.8046 22.3817 35.5734 23.0211C35.4251 23.4311 35.6373 23.8837 36.0474 24.032ZM28.0002 27.5647C27.0416 27.4993 26.1148 27.3855 25.2781 27.2214C25.4713 29.6601 27.5116 31.579 30.0001 31.579C32.4885 31.579 34.5288 29.6601 34.722 27.2214C33.8853 27.3855 32.9585 27.4993 32 27.5647C30.0001 27.7013 30.0001 27.7013 28.0002 27.5647Z" fill="white"/>
<path fill-rule="evenodd" clip-rule="evenodd" d="M26.474 33.4739L29.2105 35.5263H30.7895L33.526 33.4739C38.3379 34.2445 44.2105 36.3864 44.2105 39.4737V44.2106H15.7895V39.4737C15.7895 36.3864 21.6621 34.2445 26.474 33.4739ZM31.3158 37.1052L33.9291 35.1452C34.7211 35.2906 35.5273 35.4722 36.3158 35.6865V42.6315H37.8947V36.1698C38.4469 36.3595 38.9775 36.5656 39.4737 36.7868V42.6316H20.5263V36.7868C21.0226 36.5656 21.5531 36.3595 22.1052 36.1698V42.6315H23.6842V35.6865C24.4726 35.4722 25.2789 35.2906 26.0709 35.1452L28.6842 37.1052H31.3158ZM42.0827 38.4398C42.5284 38.9006 42.6316 39.2407 42.6316 39.4737V42.6316H41.0526V37.6234C41.4782 37.8966 41.8229 38.1711 42.0827 38.4398ZM17.9172 38.4398C18.1771 38.1711 18.5218 37.8966 18.9474 37.6234V42.6316H17.3684V39.4737C17.3684 39.2407 17.4716 38.9006 17.9172 38.4398Z" fill="white"/>
</g>
<defs>
<clipPath id="clip0_16_56">
<rect width="30" height="30" fill="white" transform="translate(15 15)"/>
</clipPath>
</defs>
</svg>
