<svg width="60" height="60" viewBox="0 0 60 60" fill="none" xmlns="http://www.w3.org/2000/svg">
<rect width="60" height="60" rx="12" fill="#007643"/>
<path d="M31.25 36.875V42.5L33.75 40.625L36.25 42.5V36.875M27.5 38.75H21.25C20.587 38.75 19.9511 38.4866 19.4822 38.0178C19.0134 37.5489 18.75 36.913 18.75 36.25V23.75C18.75 22.375 19.875 21.25 21.25 21.25H38.75C39.413 21.25 40.0489 21.5134 40.5178 21.9822C40.9866 22.4511 41.25 23.087 41.25 23.75V36.25C41.2496 36.6884 41.1338 37.119 40.9144 37.4985C40.695 37.8781 40.3797 38.1933 40 38.4125M22.5 26.25H37.5M22.5 30H26.25M22.5 33.75H25M30 33.75C30 34.7446 30.3951 35.6984 31.0983 36.4017C31.8016 37.1049 32.7554 37.5 33.75 37.5C34.7446 37.5 35.6984 37.1049 36.4017 36.4017C37.1049 35.6984 37.5 34.7446 37.5 33.75C37.5 32.7554 37.1049 31.8016 36.4017 31.0983C35.6984 30.3951 34.7446 30 33.75 30C32.7554 30 31.8016 30.3951 31.0983 31.0983C30.3951 31.8016 30 32.7554 30 33.75Z" stroke="white" stroke-width="2" stroke-linecap="round" stroke-linejoin="round"/>
</svg>
