<svg width="60" height="60" viewBox="0 0 60 60" fill="none" xmlns="http://www.w3.org/2000/svg">
<rect width="60" height="60" rx="12" fill="#007643"/>
<path d="M26.25 41.25V33.75C26.25 33.087 26.5134 32.4511 26.9822 31.9822C27.4511 31.5134 28.087 31.25 28.75 31.25H31.25C31.913 31.25 32.5489 31.5134 33.0178 31.9822C33.4866 32.4511 33.75 33.087 33.75 33.75V41.25M21.25 30H18.75L30 18.75L41.25 30H38.75V38.75C38.75 39.413 38.4866 40.0489 38.0178 40.5178C37.5489 40.9866 36.913 41.25 36.25 41.25H23.75C23.087 41.25 22.4511 40.9866 21.9822 40.5178C21.5134 40.0489 21.25 39.413 21.25 38.75V30Z" stroke="white" stroke-width="2" stroke-linecap="round" stroke-linejoin="round"/>
</svg>
