<svg width="147" height="26" viewBox="0 0 147 26" fill="none" xmlns="http://www.w3.org/2000/svg">
<path d="M4.63798 9.89407C7.19946 9.89407 9.27596 7.80487 9.27596 5.22772C9.27596 2.65057 7.19946 0.561371 4.63798 0.561371C2.07649 0.561371 0 2.65057 0 5.22772C0 7.80487 2.07649 9.89407 4.63798 9.89407Z" fill="white"/>
<path d="M4.63767 16.1057C2.07619 16.1057 0.000244141 18.195 0.000244141 20.7722C0.000244141 23.3493 2.07619 25.4386 4.63767 25.4386C7.19916 25.4386 9.27574 23.3493 9.27574 20.7722C9.27574 18.195 7.19916 16.1057 4.63767 16.1057ZM4.63767 17.1691C6.61553 17.1691 8.21944 18.7822 8.21944 20.7722C8.21944 22.7621 6.61553 24.3752 4.63767 24.3752C2.65982 24.3752 1.05655 22.7621 1.05655 20.7722C1.05655 18.7822 2.65982 17.1691 4.63767 17.1691Z" fill="white"/>
<path d="M21.388 25.4384C23.9495 25.4384 26.026 23.3492 26.026 20.7721C26.026 18.1949 23.9495 16.1057 21.388 16.1057C18.8265 16.1057 16.75 18.1949 16.75 20.7721C16.75 23.3492 18.8265 25.4384 21.388 25.4384Z" fill="white"/>
<path d="M21.388 9.89407C23.9495 9.89407 26.026 7.80487 26.026 5.22772C26.026 2.65057 23.9495 0.561371 21.388 0.561371C18.8265 0.561371 16.75 2.65057 16.75 5.22772C16.75 7.80487 18.8265 9.89407 21.388 9.89407Z" fill="white"/>
<path d="M41.0245 25.0632H38.8924V8.52072H33.0857V6.61537H46.8312V8.52072H41.0245V25.0632Z" fill="white"/>
<path d="M55.0709 25.3165C53.0392 25.3165 51.4359 24.694 50.2612 23.449C49.0865 22.204 48.4991 20.4753 48.4991 18.2629C48.4991 16.0337 49.0447 14.2629 50.1358 12.9506C51.2269 11.6384 52.6922 10.9822 54.5316 10.9822C56.254 10.9822 57.6168 11.5521 58.6201 12.692C59.6234 13.8318 60.1251 15.3355 60.1251 17.203V18.5279H50.6563C50.6981 20.1514 51.1057 21.3838 51.8791 22.225C52.6525 23.0662 53.7415 23.4868 55.1461 23.4868C56.626 23.4868 58.0892 23.1756 59.5357 22.5531V24.4206C58.7999 24.7402 58.1038 24.9695 57.4475 25.1083C56.7912 25.2471 55.999 25.3165 55.0709 25.3165ZM54.5065 12.7361C53.4029 12.7361 52.5229 13.0979 51.8665 13.8213C51.2102 14.5447 50.8235 15.5458 50.7064 16.8244H57.8927C57.8927 15.5037 57.6001 14.4922 57.0148 13.7897C56.4295 13.0873 55.5934 12.7361 54.5065 12.7361Z" fill="white"/>
<path d="M65.7186 17.9848C66.0781 17.4717 66.6257 16.7987 67.3615 15.9659L71.8012 11.2341H74.2719L68.7034 17.1268L74.6607 25.0637H72.1398L67.2862 18.5274L65.7186 19.8902V25.0637H63.6617V5.42973H65.7186V15.8398C65.7186 16.3024 65.6851 17.0175 65.6182 17.9848H65.7186Z" fill="white"/>
<path d="M85.5832 25.0632L79.3626 8.71H79.2623C79.3794 10.0055 79.4379 11.5449 79.4379 13.3283V25.0632H77.4689V6.61537H80.6795L86.4862 21.8329H86.5865L92.4434 6.61537H95.629V25.0632H93.4969V13.1768C93.4969 11.8141 93.5554 10.3336 93.6725 8.73523H93.5722L87.3014 25.0632H85.5832Z" fill="white"/>
<path d="M106.14 25.3165C104.108 25.3165 102.505 24.694 101.33 23.449C100.155 22.204 99.5679 20.4753 99.5679 18.2629C99.5679 16.0337 100.113 14.2629 101.205 12.9506C102.296 11.6384 103.761 10.9822 105.6 10.9822C107.323 10.9822 108.686 11.5521 109.689 12.692C110.692 13.8318 111.194 15.3355 111.194 17.203V18.5279H101.725C101.767 20.1514 102.174 21.3838 102.948 22.225C103.721 23.0662 104.81 23.4868 106.215 23.4868C107.695 23.4868 109.158 23.1756 110.604 22.5531V24.4206C109.869 24.7402 109.173 24.9695 108.516 25.1083C107.86 25.2471 107.068 25.3165 106.14 25.3165ZM105.575 12.7361C104.472 12.7361 103.592 13.0979 102.935 13.8213C102.279 14.5447 101.892 15.5458 101.775 16.8244H108.961C108.961 15.5037 108.669 14.4922 108.084 13.7897C107.498 13.0873 106.662 12.7361 105.575 12.7361Z" fill="white"/>
<path d="M124.086 23.2088H123.973C123.012 24.6136 121.574 25.316 119.659 25.316C117.861 25.316 116.463 24.6977 115.464 23.4612C114.465 22.2246 113.965 20.4664 113.965 18.1867C113.965 15.9071 114.467 14.1363 115.47 12.8745C116.474 11.6127 117.87 10.9818 119.659 10.9817C121.524 10.9818 122.953 11.6631 123.948 13.0259H124.111L124.023 12.0291L123.973 11.0575V5.42973H126.055V25.0637H124.362L124.086 23.2088ZM119.922 23.5621C121.344 23.5621 122.374 23.173 123.014 22.3949C123.654 21.6168 123.973 20.3613 123.973 18.6284V18.1867C123.973 16.2267 123.649 14.8282 123.001 13.9912C122.353 13.1542 121.319 12.7357 119.897 12.7357C118.677 12.7357 117.742 13.2131 117.094 14.1678C116.446 15.1226 116.122 16.4707 116.122 18.212C116.122 19.9785 116.444 21.3119 117.088 22.212C117.732 23.1121 118.677 23.5621 119.922 23.5621Z" fill="white"/>
<path d="M132.565 25.0629H130.483V11.2333H132.565V25.0629ZM130.308 7.48572C130.308 7.00625 130.425 6.65505 130.659 6.43211C130.893 6.2092 131.186 6.09774 131.537 6.09772C131.871 6.09774 132.16 6.2113 132.402 6.43841C132.645 6.66556 132.766 7.01466 132.766 7.48572C132.766 7.95682 132.645 8.30803 132.402 8.53934C132.16 8.77069 131.871 8.88636 131.537 8.88635C131.186 8.88636 130.893 8.77069 130.659 8.53934C130.425 8.30803 130.308 7.95682 130.308 7.48572Z" fill="white"/>
<path d="M145.458 25.0632L145.044 23.0947H144.943C144.258 23.9612 143.574 24.5479 142.893 24.855C142.211 25.162 141.361 25.3156 140.341 25.3156C138.978 25.3156 137.91 24.9622 137.136 24.2556C136.363 23.549 135.976 22.5438 135.976 21.2399C135.976 18.447 138.196 16.9833 142.636 16.8487L144.968 16.773V15.915C144.968 14.8298 144.736 14.0286 144.272 13.5112C143.808 12.9939 143.066 12.7352 142.046 12.7352C140.901 12.7352 139.605 13.0885 138.158 13.7951L137.519 12.1926C138.196 11.8225 138.938 11.5323 139.745 11.322C140.552 11.1117 141.361 11.0065 142.172 11.0065C143.81 11.0065 145.025 11.3724 145.815 12.1043C146.605 12.8362 147 14.0096 147 15.6248V25.0632H145.458ZM140.755 23.5869C142.05 23.5869 143.068 23.2293 143.808 22.5143C144.548 21.7993 144.918 20.7982 144.918 19.5112V18.262L142.836 18.3503C141.181 18.4092 139.987 18.6679 139.256 19.1263C138.524 19.5848 138.158 20.2977 138.158 21.2651C138.158 22.0222 138.386 22.5984 138.842 22.9938C139.298 23.3892 139.935 23.5869 140.755 23.5869Z" fill="white"/>
</svg>
