<svg width="37" height="36" viewBox="0 0 37 36" fill="none" xmlns="http://www.w3.org/2000/svg">
<g clip-path="url(#clip0_65_465)">
<path d="M36.6666 18C36.6666 8.05887 28.6078 0 18.6666 0C8.7255 0 0.666626 8.05887 0.666626 18C0.666626 27.9411 8.7255 36 18.6666 36C28.6078 36 36.6666 27.9411 36.6666 18Z" fill="#675DA9"/>
<path d="M27.4818 9.13853C26.8864 8.59118 24.4759 6.83852 19.1027 6.81451C19.1027 6.81451 12.7692 6.43037 9.68165 9.2634C7.96261 10.9824 7.35759 13.4938 7.29517 16.6149C7.23275 19.7312 7.15112 25.575 12.7836 27.1595H12.7884L12.7836 29.5748C12.7836 29.5748 12.75 30.5544 13.3934 30.7513C14.1713 30.9914 14.6323 30.2471 15.3766 29.4452C15.7847 29.0034 16.3465 28.36 16.7738 27.8654C20.6248 28.1871 23.5876 27.4477 23.9236 27.3372C24.7015 27.0827 29.1048 26.5209 29.8202 20.6772C30.5597 14.6654 29.4601 10.8576 27.4818 9.13853ZM28.1348 20.2547C27.5298 25.1332 23.962 25.4405 23.3042 25.6518C23.0257 25.743 20.4232 26.3913 17.1484 26.1752C17.1484 26.1752 14.7091 29.1187 13.9504 29.8822C13.8304 30.0022 13.6911 30.0502 13.5999 30.0262C13.4702 29.9926 13.4318 29.8389 13.4366 29.6132C13.4366 29.2868 13.4558 25.5942 13.4558 25.5942C13.451 25.5942 13.451 25.5942 13.4558 25.5942C8.68768 24.2737 8.96615 19.2991 9.01903 16.6965C9.07183 14.094 9.56158 11.9572 11.0165 10.5215C13.6239 8.15903 19.0066 8.5095 19.0066 8.5095C23.5491 8.5287 25.7243 9.89723 26.2285 10.3534C27.9043 11.7939 28.759 15.2272 28.1348 20.2547Z" fill="white"/>
<path d="M21.3164 16.7876C21.1579 16.7876 21.0234 16.6628 21.0138 16.4995C20.961 15.4671 20.4761 14.963 19.4869 14.9102C19.3188 14.9006 19.1891 14.7565 19.1987 14.5884C19.2083 14.4203 19.3524 14.2907 19.5205 14.3003C20.8265 14.3723 21.5564 15.1214 21.6236 16.4659C21.6332 16.634 21.5036 16.778 21.3356 16.7828C21.326 16.7876 21.3212 16.7876 21.3164 16.7876Z" fill="white"/>
<path d="M22.8722 17.3057H22.8674C22.6993 17.3009 22.5649 17.1617 22.5697 16.9936C22.5937 15.9564 22.296 15.1161 21.6621 14.4246C21.0331 13.7332 20.164 13.3587 19.0164 13.2771C18.8483 13.2627 18.7235 13.1186 18.7379 12.9505C18.7523 12.7824 18.8964 12.6576 19.0644 12.672C20.3609 12.768 21.3837 13.2194 22.1135 14.0165C22.8482 14.8184 23.2035 15.822 23.1795 17.008C23.1747 17.1761 23.0355 17.3057 22.8722 17.3057Z" fill="white"/>
<path d="M24.4663 17.93C24.2983 17.93 24.1638 17.7955 24.1638 17.6274C24.1494 15.7691 23.6164 14.3526 22.5312 13.2914C21.4604 12.2447 20.1015 11.7116 18.5025 11.6972C18.3345 11.6972 18.2 11.558 18.2 11.39C18.2 11.2219 18.3393 11.0874 18.5025 11.0874C20.2648 11.1018 21.7629 11.6924 22.9489 12.8545C24.1398 14.0165 24.7496 15.6203 24.7688 17.6178C24.7736 17.7907 24.6391 17.93 24.4663 17.93C24.4711 17.93 24.4711 17.93 24.4663 17.93ZM19.5589 20.5468C19.5589 20.5468 19.9863 20.5852 20.2167 20.3019L20.6633 19.7401C20.8794 19.4616 21.4028 19.2839 21.9117 19.5673C22.1951 19.7257 22.7088 20.0426 23.0258 20.2779C23.3667 20.5276 24.0582 21.1038 24.063 21.1086C24.3943 21.3871 24.4711 21.7953 24.2455 22.2322C24.2455 22.2322 24.2455 22.237 24.2455 22.2418C24.0149 22.65 23.7028 23.0341 23.3139 23.3894C23.3091 23.3894 23.3091 23.3942 23.3043 23.3942C22.9825 23.6632 22.6656 23.8168 22.3583 23.8504C22.3199 23.86 22.2767 23.86 22.2191 23.86C22.0846 23.86 21.9501 23.8408 21.8157 23.7976L21.8062 23.7832C21.3259 23.6488 20.5288 23.3126 19.2036 22.5779C18.3393 22.1026 17.6238 21.6176 17.0139 21.1326C16.6923 20.8781 16.3657 20.5948 16.0296 20.2587C16.02 20.2491 16.0056 20.2347 15.996 20.2251C15.9864 20.2155 15.972 20.2011 15.9624 20.1915C15.9528 20.1819 15.9384 20.1675 15.9288 20.1579C15.9192 20.1483 15.9048 20.1338 15.8952 20.1242C15.5638 19.7881 15.2757 19.4616 15.0213 19.1399C14.5362 18.5349 14.0513 17.8146 13.5759 16.9503C12.8412 15.6202 12.5051 14.8232 12.3707 14.3477L12.3563 14.3381C12.313 14.2037 12.2938 14.0693 12.2938 13.9348C12.2938 13.8772 12.2938 13.834 12.3034 13.7956C12.3419 13.4834 12.4955 13.1713 12.7596 12.8496C12.7596 12.8448 12.7644 12.8448 12.7644 12.84C13.1197 12.4463 13.5039 12.1389 13.912 11.9084C13.912 11.9084 13.9168 11.9084 13.9216 11.9084C14.3538 11.6828 14.7619 11.7596 15.0453 12.0909C15.0453 12.0909 15.6263 12.7872 15.876 13.1281C16.1112 13.4498 16.4281 13.9588 16.5866 14.2421C16.8699 14.7511 16.6923 15.2745 16.4137 15.4906L15.852 15.9371C15.5686 16.1676 15.607 16.595 15.607 16.595C15.607 16.595 16.4378 19.7545 19.5589 20.5468Z" fill="white"/>
</g>
<defs>
<clipPath id="clip0_65_465">
<rect width="36" height="36" fill="white" transform="translate(0.666626)"/>
</clipPath>
</defs>
</svg>
