<svg width="37" height="36" viewBox="0 0 37 36" fill="none" xmlns="http://www.w3.org/2000/svg">
<g clip-path="url(#clip0_65_462)">
<path d="M36.6666 18C36.6666 8.05887 28.6078 0 18.6666 0C8.7255 0 0.666626 8.05887 0.666626 18C0.666626 27.9411 8.7255 36 18.6666 36C28.6078 36 36.6666 27.9411 36.6666 18Z" fill="#0DC143"/>
<path d="M26.7297 9.90847C24.7999 7.92195 22.1324 6.8436 19.408 6.8436C13.6188 6.8436 8.9648 11.5544 9.02157 17.2868C9.02157 19.103 9.5324 20.8625 10.3837 22.4517L8.90802 27.8436L14.4135 26.4247C15.9459 27.276 17.6486 27.6733 19.3512 27.6733C25.0837 27.6733 29.7378 22.9625 29.7378 17.23C29.7378 14.449 28.6594 11.8382 26.7297 9.90847ZM19.408 25.9138C17.8756 25.9138 16.3431 25.5166 15.0378 24.7219L14.6972 24.5517L11.4054 25.403L12.2567 22.1679L12.0297 21.8274C9.53239 17.7976 10.7242 12.4625 14.8107 9.96525C18.8972 7.46792 24.1756 8.6598 26.6729 12.7463C29.1702 16.8328 27.9783 22.1112 23.8918 24.6085C22.5864 25.4598 20.9972 25.9138 19.408 25.9138ZM24.4026 19.6138L23.7783 19.33C23.7783 19.33 22.8702 18.9328 22.3026 18.649C22.2459 18.649 22.1891 18.5923 22.1324 18.5923C21.9621 18.5923 21.8486 18.649 21.735 18.7057C21.735 18.7057 21.6783 18.7625 20.8837 19.6706C20.8269 19.7842 20.7135 19.8409 20.5999 19.8409H20.5431C20.4864 19.8409 20.3729 19.7842 20.3161 19.7274L20.0324 19.6138C19.408 19.33 18.8405 18.9895 18.3864 18.5355C18.2729 18.4219 18.1026 18.3085 17.9891 18.1949C17.5918 17.7976 17.1945 17.3436 16.9107 16.8328L16.854 16.7193C16.7972 16.6625 16.7972 16.6057 16.7405 16.4923C16.7405 16.3787 16.7405 16.2652 16.7972 16.2085C16.7972 16.2085 17.0242 15.9247 17.1945 15.7544C17.308 15.6409 17.3648 15.4706 17.4783 15.3571C17.5918 15.1868 17.6486 14.9598 17.5918 14.7895C17.535 14.5057 16.854 12.9733 16.6837 12.6328C16.5702 12.4625 16.4567 12.4057 16.2864 12.349H16.1161C16.0026 12.349 15.8324 12.349 15.6621 12.349C15.5486 12.349 15.435 12.4057 15.3216 12.4057L15.2648 12.4625C15.1512 12.5193 15.0378 12.6328 14.9242 12.6895C14.8107 12.803 14.754 12.9166 14.6405 13.03C14.2431 13.5409 14.0161 14.1652 14.0161 14.7895C14.0161 15.2436 14.1297 15.6976 14.2999 16.0949L14.3567 16.2652C14.8675 17.3436 15.5486 18.3085 16.4567 19.1598L16.6837 19.3868C16.854 19.5571 17.0242 19.6706 17.1378 19.8409C18.3297 20.8625 19.6918 21.6004 21.2242 21.9977C21.3945 22.0544 21.6216 22.0544 21.7918 22.1112C21.9621 22.1112 22.1891 22.1112 22.3594 22.1112C22.6431 22.1112 22.9837 21.9977 23.2107 21.8842C23.381 21.7706 23.4945 21.7706 23.608 21.6571L23.7216 21.5436C23.835 21.43 23.9486 21.3733 24.0621 21.2598C24.1756 21.1463 24.2891 21.0328 24.3459 20.9193C24.4594 20.6923 24.5161 20.4085 24.5729 20.1247C24.5729 20.0112 24.5729 19.8409 24.5729 19.7274C24.5729 19.7274 24.5161 19.6706 24.4026 19.6138Z" fill="white"/>
</g>
<defs>
<clipPath id="clip0_65_462">
<rect width="36" height="36" fill="white" transform="translate(0.666626)"/>
</clipPath>
</defs>
</svg>
