<svg width="246" height="42" viewBox="0 0 246 42" fill="none" xmlns="http://www.w3.org/2000/svg">
<mask id="mask0_65_423" style="mask-type:alpha" maskUnits="userSpaceOnUse" x="6" y="3" width="33" height="21">
<path d="M38.1739 16.3195L10.2827 23.7929L6.88575 11.1151L34.7769 3.64169L38.1739 16.3195Z" fill="#D9D9D9"/>
</mask>
<g mask="url(#mask0_65_423)">
<path d="M6.84785 18.2612C13.2392 15.9786 19.6305 15.9784 12.7826 22.3697" stroke="#007643"/>
<path d="M3.65219 15.5219C9.58698 12.3263 14.1522 12.3263 20.5435 13.6959C25.6565 14.7915 34.5435 7.45673 38.3478 3.65239" stroke="#007643"/>
<path d="M40.1739 10.9567C29.6739 17.348 25.5652 13.6959 21 17.8046C17.3478 21.0915 15.2174 24.6524 14.6087 26.022" stroke="#007643"/>
<path d="M15.5218 9.13065C23.7392 12.3263 25.1087 12.7828 30.1305 4.56544" stroke="#007643"/>
</g>
<mask id="mask1_65_423" style="mask-type:alpha" maskUnits="userSpaceOnUse" x="3" y="18" width="32" height="21">
<path d="M34.5292 30.8845L6.63813 38.3579L3.24113 25.6802L31.1322 18.2068L34.5292 30.8845Z" fill="#D9D9D9"/>
</mask>
<g mask="url(#mask1_65_423)">
<path d="M-10.0435 40.3206C1.83115 24.6173 16.8755 19.0265 9.61544 29.4978C2.35528 39.9692 20.1619 35.8463 26.12 22.7448C32.078 9.64315 29.4382 23.2058 24.803 33.6878M16.2815 21.393C16.9274 24.0207 15.6071 25.9842 13.6307 27.9452C11.654 29.906 18.2139 30.5883 20.2034 25.346C22.1929 20.1039 18.2684 16.8072 16.2815 21.393Z" stroke="#007643"/>
</g>
<path d="M38.1742 16.3201L10.2831 23.7935L6.88607 11.1158L34.7772 3.64236L38.1742 16.3201Z" stroke="#007643" stroke-width="3"/>
<path d="M34.5292 30.8845L6.63813 38.3579L3.24113 25.6802L31.1322 18.2068L34.5292 30.8845Z" stroke="#007643" stroke-width="3"/>
<path d="M64.146 24.52L67.006 27.458C66.174 28.4807 65.082 29.3127 63.73 29.954C62.3953 30.5953 60.922 30.916 59.31 30.916C57.802 30.916 56.4327 30.682 55.202 30.214C53.9713 29.7287 52.9053 29.0527 52.004 28.186C51.12 27.3193 50.4353 26.2967 49.95 25.118C49.4647 23.922 49.222 22.6133 49.222 21.192C49.222 19.788 49.4733 18.4967 49.976 17.318C50.4787 16.122 51.1807 15.0907 52.082 14.224C53.0007 13.3573 54.0753 12.69 55.306 12.222C56.554 11.7367 57.9233 11.494 59.414 11.494C61.026 11.494 62.482 11.8147 63.782 12.456C65.0993 13.0973 66.174 13.9293 67.006 14.952L64.146 17.89C63.6087 17.1273 62.924 16.5293 62.092 16.096C61.2773 15.6453 60.3847 15.42 59.414 15.42C58.374 15.42 57.438 15.6713 56.606 16.174C55.7913 16.6593 55.15 17.3353 54.682 18.202C54.214 19.0687 53.98 20.0653 53.98 21.192C53.98 22.3187 54.214 23.324 54.682 24.208C55.15 25.0747 55.7913 25.7593 56.606 26.262C57.438 26.7473 58.374 26.99 59.414 26.99C60.3847 26.99 61.2773 26.7647 62.092 26.314C62.924 25.8633 63.6087 25.2653 64.146 24.52ZM72.5373 30.5V18.826H76.9313V30.5H72.5373ZM68.3253 20.724V17.24H81.1433V20.724H68.3253ZM87.6994 35.544H83.3054V17.24H87.6734V21.426H86.7634C86.8674 20.5593 87.1274 19.7793 87.5434 19.086C87.9594 18.3927 88.5227 17.8467 89.2334 17.448C89.944 17.032 90.7847 16.824 91.7554 16.824C92.934 16.824 94.0174 17.1187 95.0054 17.708C96.0107 18.2973 96.808 19.1207 97.3974 20.178C98.004 21.218 98.3074 22.4487 98.3074 23.87C98.3074 25.274 98.004 26.5047 97.3974 27.562C96.808 28.6193 96.0194 29.4427 95.0314 30.032C94.0434 30.6213 92.96 30.916 91.7814 30.916C90.6547 30.916 89.7014 30.6733 88.9214 30.188C88.1587 29.7027 87.578 29.0527 87.1794 28.238C86.7807 27.406 86.5814 26.496 86.5814 25.508L87.5694 25.092C87.656 25.5427 87.838 25.9413 88.1154 26.288C88.41 26.6173 88.7654 26.8773 89.1814 27.068C89.6147 27.2413 90.074 27.328 90.5594 27.328C91.218 27.328 91.7814 27.1807 92.2494 26.886C92.7347 26.5913 93.1074 26.184 93.3674 25.664C93.6447 25.1267 93.7834 24.5287 93.7834 23.87C93.7834 23.194 93.6534 22.596 93.3934 22.076C93.1507 21.556 92.804 21.1487 92.3534 20.854C91.9027 20.5593 91.3567 20.412 90.7154 20.412C90.126 20.412 89.606 20.5507 89.1554 20.828C88.7047 21.088 88.3494 21.4693 88.0894 21.972C87.8294 22.4573 87.6994 23.0553 87.6994 23.766V35.544ZM107.663 30.916C106.172 30.916 104.855 30.6213 103.711 30.032C102.584 29.4253 101.7 28.5933 101.059 27.536C100.435 26.4613 100.123 25.2393 100.123 23.87C100.123 22.4833 100.435 21.2613 101.059 20.204C101.7 19.1467 102.584 18.3233 103.711 17.734C104.855 17.1273 106.172 16.824 107.663 16.824C109.154 16.824 110.462 17.1273 111.589 17.734C112.733 18.3233 113.617 19.1467 114.241 20.204C114.882 21.2613 115.203 22.4747 115.203 23.844C115.203 25.2307 114.882 26.4613 114.241 27.536C113.617 28.5933 112.733 29.4253 111.589 30.032C110.462 30.6213 109.154 30.916 107.663 30.916ZM107.663 27.328C108.27 27.328 108.798 27.1807 109.249 26.886C109.7 26.5913 110.046 26.184 110.289 25.664C110.549 25.144 110.679 24.546 110.679 23.87C110.679 23.194 110.549 22.596 110.289 22.076C110.046 21.556 109.7 21.1487 109.249 20.854C108.798 20.5593 108.27 20.412 107.663 20.412C107.074 20.412 106.545 20.5593 106.077 20.854C105.626 21.1487 105.271 21.556 105.011 22.076C104.768 22.596 104.647 23.194 104.647 23.87C104.647 24.546 104.768 25.144 105.011 25.664C105.271 26.184 105.626 26.5913 106.077 26.886C106.545 27.1807 107.074 27.328 107.663 27.328ZM117.735 30.5V17.24H121.869V24.988L121.687 24.936L127.121 17.24H130.995V30.5H126.861V22.752L127.043 22.804L121.609 30.5H117.735ZM134.214 30.5V17.24H138.556L142.742 25.3L142.17 25.274L146.226 17.24H150.672V30.5H146.85V18.696L148.15 20.334L143.652 29.018H141.104L136.58 20.308L137.88 18.93V30.5H134.214ZM153.761 28.42V26.756H154.957C155.443 26.756 155.833 26.4267 156.127 25.768C156.422 25.092 156.665 23.9913 156.855 22.466L158.155 11.91H171.077V27.77H166.657V12.482L168.737 15.654H158.649L162.393 12.482L161.041 22.96C160.885 24.1907 160.591 25.2133 160.157 26.028C159.741 26.8253 159.178 27.4233 158.467 27.822C157.757 28.2207 156.907 28.42 155.919 28.42H153.761ZM153.111 35.024V26.756H173.495V35.024H169.335V28.368L171.675 30.5H155.321L157.271 28.836V35.024H153.111ZM182.337 30.916C180.846 30.916 179.529 30.6213 178.385 30.032C177.258 29.4253 176.374 28.5933 175.733 27.536C175.109 26.4613 174.797 25.2393 174.797 23.87C174.797 22.4833 175.109 21.2613 175.733 20.204C176.374 19.1467 177.258 18.3233 178.385 17.734C179.529 17.1273 180.846 16.824 182.337 16.824C183.827 16.824 185.136 17.1273 186.263 17.734C187.407 18.3233 188.291 19.1467 188.915 20.204C189.556 21.2613 189.877 22.4747 189.877 23.844C189.877 25.2307 189.556 26.4613 188.915 27.536C188.291 28.5933 187.407 29.4253 186.263 30.032C185.136 30.6213 183.827 30.916 182.337 30.916ZM182.337 27.328C182.943 27.328 183.472 27.1807 183.923 26.886C184.373 26.5913 184.72 26.184 184.963 25.664C185.223 25.144 185.353 24.546 185.353 23.87C185.353 23.194 185.223 22.596 184.963 22.076C184.72 21.556 184.373 21.1487 183.923 20.854C183.472 20.5593 182.943 20.412 182.337 20.412C181.747 20.412 181.219 20.5593 180.751 20.854C180.3 21.1487 179.945 21.556 179.685 22.076C179.442 22.596 179.321 23.194 179.321 23.87C179.321 24.546 179.442 25.144 179.685 25.664C179.945 26.184 180.3 26.5913 180.751 26.886C181.219 27.1807 181.747 27.328 182.337 27.328ZM192.409 30.5V17.24H196.751L200.937 25.3L200.365 25.274L204.421 17.24H208.867V30.5H205.045V18.696L206.345 20.334L201.847 29.018H199.299L194.775 20.308L196.075 18.93V30.5H192.409ZM224.853 30.5H220.459V27.354H211.385V23.87L220.459 11.91H224.853V23.87H227.219V27.354H224.853V30.5ZM220.459 17.5L215.519 23.87H220.459V17.5ZM242.55 30.5H238.156V27.354H229.082V23.87L238.156 11.91H242.55V23.87H244.916V27.354H242.55V30.5ZM238.156 17.5L233.216 23.87H238.156V17.5Z" fill="white"/>
</svg>
