<svg width="16" height="16" viewBox="0 0 16 16" fill="none" xmlns="http://www.w3.org/2000/svg">
<path d="M5.75 6.50004C5.75 6.59949 5.78951 6.69488 5.85983 6.7652C5.93016 6.83553 6.02554 6.87504 6.125 6.87504C6.22446 6.87504 6.31984 6.83553 6.39017 6.7652C6.46049 6.69488 6.5 6.59949 6.5 6.50004V5.75004C6.5 5.65058 6.46049 5.5552 6.39017 5.48487C6.31984 5.41455 6.22446 5.37504 6.125 5.37504C6.02554 5.37504 5.93016 5.41455 5.85983 5.48487C5.78951 5.5552 5.75 5.65058 5.75 5.75004V6.50004ZM5.75 6.50004C5.75 7.4946 6.14509 8.44843 6.84835 9.15169C7.55161 9.85495 8.50544 10.25 9.5 10.25M9.5 10.25H10.25C10.3495 10.25 10.4448 10.2105 10.5152 10.1402C10.5855 10.0699 10.625 9.97449 10.625 9.87504C10.625 9.77558 10.5855 9.6802 10.5152 9.60987C10.4448 9.53955 10.3495 9.50004 10.25 9.50004H9.5C9.40054 9.50004 9.30516 9.53955 9.23483 9.60987C9.16451 9.6802 9.125 9.77558 9.125 9.87504C9.125 9.97449 9.16451 10.0699 9.23483 10.1402C9.30516 10.2105 9.40054 10.25 9.5 10.25ZM1.25 14.75L2.4875 11.9C1.54075 10.5561 1.117 8.91281 1.29578 7.27862C1.47457 5.64442 2.24359 4.13164 3.45853 3.02418C4.67347 1.91671 6.25081 1.2907 7.89454 1.26361C9.53826 1.23653 11.1354 1.81023 12.3861 2.87707C13.6369 3.9439 14.4554 5.43052 14.6879 7.05794C14.9204 8.68536 14.551 10.3417 13.6491 11.7161C12.7471 13.0905 11.3746 14.0886 9.78904 14.5229C8.20351 14.9572 6.51397 14.7979 5.0375 14.075L1.25 14.75Z" stroke="#D68F1C" stroke-width="1.4" stroke-linecap="round" stroke-linejoin="round"/>
</svg>
